name analog
datacolumns 19
datarows 18
range 0.5085000000000001 0.517
endheader
time	ground_force_vx	ground_force_vy	ground_force_vz	ground_force_px	ground_force_py	ground_force_pz	l_ground_force_vx	l_ground_force_vy	l_ground_force_vz	l_ground_force_px	l_ground_force_py	l_ground_force_pz	ground_torque_x	ground_torque_y	ground_torque_z	l_ground_torque_x	l_ground_torque_y	l_ground_torque_z
0.5085000000000001	-0.0	-0.0	-0.0	-9.07388687133789	100.97763061523438	-455.0182189941406	-0.0830104053020477	-97.18582153320312	-441.8106384277344	-0.0	-0.0	-0.0	-0.0	-0.0	-0.0	54165.83203125	13099.841796875	509.20849609375
0.509	-0.0	-0.0	-0.0	-7.96880578994751	101.31022644042967	-461.0386352539063	-0.6494249701499939	-97.68545532226562	-443.6663513183594	-0.0	-0.0	-0.0	-0.0	-0.0	-0.0	54481.37890625	12953.703125	420.8109436035156
0.5095000000000001	-0.0	-0.0	-0.0	-6.249006748199463	101.40140533447266	-463.9635314941406	-0.7714040279388428	-98.0685577392578	-445.4112243652344	-0.0	-0.0	-0.0	-0.0	-0.0	-0.0	54812.69140625	13372.1904296875	320.4500732421875
0.51	-0.0	-0.0	-0.0	-4.783704280853272	101.49060821533205	-467.4769592285156	-1.1232274770736694	-98.47735595703124	-447.1502990722656	-0.0	-0.0	-0.0	-0.0	-0.0	-0.0	54748.125	13082.9150390625	320.56427001953125
0.5105000000000001	-0.0	-0.0	-0.0	-2.972853183746338	101.28101348876952	-471.3511657714844	-0.9758186340332032	-98.80450439453124	-450.8679809570313	-0.0	-0.0	-0.0	-0.0	-0.0	-0.0	55540.53515625	13012.5341796875	271.248779296875
0.511	-0.0	-0.0	-0.0	-2.563570261001587	101.39360809326172	-475.2554626464844	-0.3249305784702301	-99.09693908691406	-451.45709228515625	-0.0	-0.0	-0.0	-0.0	-0.0	-0.0	55644.43359375	12914.20703125	448.5361633300781
0.5115000000000001	-0.0	-0.0	-0.0	-1.965509533882141	101.85017395019533	-478.558837890625	-0.1185503527522087	-99.12664794921876	-453.6717529296875	-0.0	-0.0	-0.0	-0.0	-0.0	-0.0	55911.55859375	12868.4921875	489.2744445800781
0.512	-0.0	-0.0	-0.0	-2.045814037322998	102.55436706542967	-480.30084228515625	0.9473704099655152	-98.949951171875	-455.0565490722656	-0.0	-0.0	-0.0	-0.0	-0.0	-0.0	56100.22265625	12771.8056640625	598.4852905273438
0.5125	-0.0	-0.0	-0.0	-2.873875856399536	102.9806137084961	-482.8727416992188	2.336728811264038	-98.5680160522461	-455.4107666015625	-0.0	-0.0	-0.0	-0.0	-0.0	-0.0	56343.421875	12732.74609375	837.0527954101562
0.513	-0.0	-0.0	-0.0	-3.8966586589813232	103.78316497802734	-484.44964599609375	3.3712995052337646	-98.6263656616211	-455.7596435546875	-0.0	-0.0	-0.0	-0.0	-0.0	-0.0	56457.0703125	12634.5029296875	887.2052612304688
0.5135	-0.0	-0.0	-0.0	-4.078662872314453	104.16490173339844	-485.1421813964844	3.371009826660156	-98.89095306396484	-457.0388793945313	-0.0	-0.0	-0.0	-0.0	-0.0	-0.0	56450.609375	12538.08203125	837.5873413085938
0.514	-0.0	-0.0	-0.0	-4.5250091552734375	104.21063995361328	-483.9841918945313	3.016232967376709	-98.92042541503906	-456.45745849609375	-0.0	-0.0	-0.0	-0.0	-0.0	-0.0	56583.7421875	12460.140625	847.1793212890625
0.5145	-0.0	-0.0	-0.0	-4.849719524383545	103.85749053955078	-483.85650634765625	2.3069419860839844	-98.97948455810548	-455.9911193847656	-0.0	-0.0	-0.0	-0.0	-0.0	-0.0	56432.77734375	12459.5537109375	728.0404052734375
0.515	-0.0	-0.0	-0.0	-4.8457512855529785	103.80045318603516	-482.3314208984375	1.3895584344863892	-98.83197021484376	-456.80767822265625	-0.0	-0.0	-0.0	-0.0	-0.0	-0.0	56535.1484375	12234.2763671875	638.46337890625
0.5155	-0.0	-0.0	-0.0	-4.878267765045166	103.39126586914062	-480.6779174804688	1.1544097661972046	-98.45001220703124	-453.8970947265625	-0.0	-0.0	-0.0	-0.0	-0.0	-0.0	56137.33203125	12220.0078125	697.7700805664062
0.516	-0.0	-0.0	-0.0	-5.535467147827148	103.22183227539062	-479.9715576171875	0.7690669298171997	-98.21228790283205	-452.965087890625	-0.0	-0.0	-0.0	-0.0	-0.0	-0.0	56146.32421875	12101.646484375	737.2992553710938
0.5165	-0.0	-0.0	-0.0	-5.32442045211792	102.84733581542967	-478.16937255859375	0.7700060606002808	-97.80213928222656	-451.7987365722656	-0.0	-0.0	-0.0	-0.0	-0.0	-0.0	55837.04296875	11985.494140625	727.39208984375
0.517	-0.0	-0.0	-0.0	-4.911378383636475	102.7015380859375	-479.879150390625	0.8287029266357422	-97.56419372558594	-449.8179016113281	-0.0	-0.0	-0.0	-0.0	-0.0	-0.0	55711.515625	11909.419921875	707.64404296875
